# xmcd CD database file
#
# Track frame offsets:
#	150
#	29597
#	62784
#	83064
#	106504
#	125628
#	155012
#	179040
#	207039
#
# Disc length: 3068 seconds
#
# Revision: 0
# Processed by: cddbd v1.4PL0 Copyright (c) Steve Scherf et al.
# Submitted via: CDex 1.51
#
DISCID=780bfa09
DTITLE=Terry Oldfield  - Time for Peace
DYEAR=2003
DGENRE=New Age
TTITLE0=Terry Oldfield - Full Moon
TTITLE1=Terry Oldfield - Joy
TTITLE2=Terry Oldfield - Stream
TTITLE3=Terry Oldfield - Free as Air
TTITLE4=Terry Oldfield - A New Day
TTITLE5=Terry Oldfield - Arrival
TTITLE6=Terry Oldfield - After the Rain
TTITLE7=Terry Oldfield - Rising Sun
TTITLE8=Terry Oldfield - Shadows Dancing
EXTD=YEAR: 2003
EXTT0=
EXTT1=
EXTT2=
EXTT3=
EXTT4=
EXTT5=
EXTT6=
EXTT7=
EXTT8=
PLAYORDER=
